<?xml version="1.0" encoding="utf-8"?>
<!-- Generator: Adobe Illustrator 27.5.0, SVG Export Plug-In . SVG Version: 6.00 Build 0)  -->
<svg version="1.1" id="Layer_1" xmlns="http://www.w3.org/2000/svg" xmlns:xlink="http://www.w3.org/1999/xlink" x="0px" y="0px"
	 viewBox="0 0 9000 4000" style="enable-background:new 0 0 9000 4000;" xml:space="preserve">
<rect style="fill-rule:evenodd;clip-rule:evenodd;fill:#FCFCFC;" width="9000" height="4000"/>
<g>
	<defs>
		<path id="SVGID_1_" d="M0,3411.533c251.628-9.561,545.377-75.851,889.01-221.499
			C1928.324,2749.535,2548,2625.74,2890.865,2784.255c331.118,153.074,404.001,568.616,347.035,1215.745h-4.959
			c56.849-645.164-15.336-1059.26-344.144-1211.263c-341.511-157.884-959.948-34.068-1997.877,405.848
			C546.588,3340.524,252.206,3406.991,0,3416.623V3411.533z M0,3361.478c268.87,2.813,588.584-61.249,969.527-222.707
			c1039.314-440.501,1658.99-564.296,2001.855-405.782c339.783,157.077,407.642,590.532,342.298,1267.011h-4.966
			c65.201-674.516-1.967-1106.534-339.398-1262.527c-341.514-157.884-959.948-34.068-1997.879,405.846
			C589.82,3305.064,269.461,3369.321,0,3366.591V3361.478z M0,3307.314c284.924,17.78,630.342-41.921,1050.044-219.809
			c1039.317-440.501,1658.993-564.296,2001.855-405.782c343.41,158.755,409.079,599.781,340.179,1288.719l-2.93,29.558h-4.966
			l2.983-30.04c68.671-686.707,3.634-1126.128-337.332-1283.753c-341.512-157.884-959.948-34.068-1997.877,405.846
			C631.583,3270.221,285.527,3330.124,0,3312.454V3307.314z M0,3248.729c299.696,35.446,670.475-17.482,1130.564-212.491
			c1039.314-440.499,1658.99-564.296,2001.855-405.782c343.41,158.755,409.077,599.784,340.18,1288.719
			c-2.756,27.539-5.395,54.444-7.929,80.824h-4.959c2.547-26.53,5.204-53.605,7.974-81.304
			c68.67-686.709,3.632-1126.13-337.334-1283.755c-341.512-157.884-959.946-34.068-1997.877,405.848
			C671.747,3236.062,300.327,3289.226,0,3253.922V3248.729z M0,3185.577c313.065,55.893,708.89,12.243,1211.081-200.603
			c1039.316-440.501,1658.993-564.296,2001.855-405.782c343.41,158.755,409.077,599.781,340.179,1288.719
			c-4.563,45.649-8.818,89.603-12.757,132.088h-4.959c3.946-42.648,8.222-86.751,12.803-132.57
			c68.67-686.709,3.634-1126.131-337.332-1283.753c-341.512-157.884-959.948-34.071-1997.877,405.846
			C710.197,3202.624,313.714,3246.558,0,3190.848V3185.577z M0,3117.388c324.907,79.238,745.357,47.841,1291.6-183.68
			c1039.314-440.501,1658.991-564.296,2001.855-405.782c343.41,158.755,409.077,599.781,340.179,1288.719
			c-6.429,64.271-12.285,125.318-17.405,183.354h-4.959c5.133-58.192,11.01-119.402,17.45-183.836
			c68.671-686.707,3.632-1126.128-337.334-1283.753c-341.512-157.884-959.945-34.068-1997.877,405.846
			C746.716,3170.012,325.588,3201.753,0,3122.756V3117.388z M0,3043.688c335.085,105.591,779.615,89.883,1372.118-161.245
			c1039.314-440.499,1658.99-564.296,2001.855-405.782c343.41,158.755,409.077,599.784,340.179,1288.719
			c-8.35,83.514-15.735,161.564-21.79,234.62h-4.952c6.069-73.219,13.465-151.43,21.83-235.1
			c68.67-686.709,3.634-1126.13-337.332-1283.755c-341.512-157.884-959.948-34.068-1997.879,405.848
			C781.032,3138.328,335.812,3154.464,0,3049.172V3043.688z M0,2963.922c343.435,135.073,811.37,139.051,1452.635-132.744
			c1039.316-440.501,1658.993-564.296,2001.857-405.782c343.408,158.755,409.077,599.781,340.179,1288.719
			c-10.336,103.355-19.213,198.431-25.881,285.884h-4.959c6.688-87.622,15.573-182.861,25.927-286.366
			c68.668-686.709,3.632-1126.13-337.334-1283.753c-341.511-157.884-959.948-34.07-1997.877,405.846
			C812.851,3107.704,344.215,3104.26,0,2969.551V2963.922z M0,2877.55c349.747,167.763,840.266,196.04,1533.155-97.637
			c1039.314-440.501,1658.991-564.296,2001.855-405.782c343.41,158.755,409.077,599.781,340.179,1288.719
			c-12.395,123.926-22.668,235.932-29.577,337.15h-4.959c6.922-101.4,17.217-213.568,29.623-337.632
			c68.671-686.707,3.634-1126.128-337.332-1283.753c-341.514-157.884-959.948-34.068-1997.879,405.846
			C841.831,3078.283,350.591,3050.641,0,2883.334V2877.55z M0,2783.929c353.776,203.684,865.903,261.656,1613.672-55.283
			c1039.316-440.499,1658.993-564.296,2001.855-405.782c343.41,158.755,409.077,599.781,340.18,1288.719
			c-14.518,145.212-26.179,274.161-32.853,388.417h-4.964c6.699-114.45,18.372-243.569,32.903-388.898
			c68.671-686.707,3.634-1126.128-337.332-1283.753c-341.512-157.884-959.948-34.068-1997.877,405.848
			C867.575,3050.231,354.7,2993.045,0,2789.902V2783.929z M0,2682.041c355.238,242.886,887.643,337.19,1694.191-4.659
			c1039.314-440.501,1658.991-564.296,2001.855-405.782c343.41,158.755,409.077,599.781,340.18,1288.719
			c-16.735,167.385-29.65,313.109-35.538,439.68h-4.959c5.916-126.792,18.835-272.678,35.584-440.162
			c68.671-686.709,3.632-1126.13-337.334-1283.753c-341.512-157.884-959.946-34.071-1997.877,405.846
			C889.489,3023.807,356.252,2930.57,0,2688.346V2682.041z M0,2571.028c353.75,285.217,904.841,423.773,1774.709,55.088
			c1039.316-440.501,1658.993-564.296,2001.855-405.782c343.41,158.755,409.077,599.781,340.179,1288.719
			c-19.048,190.478-33.14,352.897-37.551,490.947h-4.973c4.446-138.29,18.556-300.886,37.611-491.428
			c68.67-686.707,3.634-1126.128-337.332-1283.753c-341.512-157.884-959.948-34.068-1997.877,405.846
			C906.829,2999.318,354.888,2862.062,0,2577.574V2571.028z M0,2449.262c348.844,330.52,916.337,523.534,1855.228,125.588
			c1039.314-440.499,1658.99-564.296,2001.855-405.782c343.41,158.755,409.076,599.781,340.179,1288.719
			c-21.46,214.584-36.643,393.603-38.755,542.212h-4.991c2.169-148.883,17.373-328.085,38.833-542.694
			c68.67-686.707,3.632-1126.128-337.334-1283.753c-341.512-157.884-959.946-34.068-1997.877,405.846
			C918.579,2977.2,350.13,2785.931,0,2456.241V2449.262z M0,2315.234c339.886,378.147,920.822,638.518,1935.745,208.352
			c1039.314-440.501,1658.991-564.296,2001.855-405.782c343.41,158.753,409.077,599.781,340.179,1288.717
			c-23.982,239.866-40.14,435.322-38.942,593.479h-5.017c-1.119-158.482,15.063-354.126,39.046-593.958
			c68.67-686.709,3.634-1126.13-337.332-1283.753c-341.512-157.886-959.948-34.071-1997.879,405.846
			C923.479,2957.982,341.369,2700.065,0,2322.864V2315.234z M0,2166.684c326.031,426.909,916.22,771.88,2016.263,305.636
			c1039.316-440.501,1658.993-564.296,2001.857-405.782c343.407,158.755,409.077,599.781,340.179,1288.719
			c-26.649,266.471-43.629,478.15-37.886,644.742h-5.055c-5.622-166.963,11.393-378.842,38.028-645.224
			c68.668-686.707,3.631-1126.13-337.335-1283.753c-341.511-157.884-959.948-34.068-1997.877,405.846
			C919.295,2942.618,327.76,2600.898,0,2174.906V2166.684z M0,2000.734c306.084,474.244,899.439,927.802,2096.782,420.32
			c1039.314-440.499,1658.99-564.296,2001.855-405.782c343.41,158.755,409.077,599.782,340.179,1288.719
			c-29.459,294.608-47.111,522.24-35.283,696.009h-5.09c-11.659-174.204,6.019-402.045,35.46-696.49
			c68.67-686.707,3.634-1126.128-337.332-1283.753c-341.514-157.884-959.948-34.068-1997.879,405.846
			C903.197,2932.305,308.138,2483.33,0,2009.834V2000.734z M0,1813.071c278.19,514.642,864.936,1112.954,2177.299,556.717
			c1039.316-440.499,1658.993-564.294,2001.855-405.78c343.41,158.753,409.077,599.782,340.18,1288.717
			c-32.45,324.51-50.583,567.793-30.753,747.275h-5.154c-19.589-180.007-1.431-423.498,30.994-747.754
			c68.67-686.709,3.634-1126.131-337.332-1283.755c-341.512-157.884-959.948-34.068-1997.877,405.849
			C869.835,2929.309,280.726,2337.884,0,1823.416V1813.071z M0,1598.15c239.41,534.199,802.433,1337.23,2257.819,720.374
			c1039.314-440.501,1658.991-564.296,2001.855-405.782c343.41,158.755,409.077,599.782,340.179,1288.719
			c-35.647,356.499-54.04,615.008-23.773,798.539h-5.298c-29.909-184.155-11.45-442.938,24.159-799.02
			c68.671-686.709,3.632-1126.13-337.334-1283.753c-341.512-157.884-959.946-34.068-1997.877,405.846
			C809.277,2937.835,242.641,2145.9,0,1610.109V1598.15z M4661.414,4000c-43.377-186.362-25.002-459.776,14.043-850.286
			c68.671-686.707,3.634-1126.128-337.332-1283.753c-341.512-157.884-959.948-34.068-1997.877,405.846
			C830.283,2911.794,278.073,2027.217,52.181,1494.247C32.417,1447.624,15.169,1403.726,0,1363.791v-13.961
			c16.267,43.147,34.999,91.222,56.732,142.507c225.195,531.327,775.765,1413.159,2281.604,774.921
			c1039.316-440.499,1658.99-564.296,2001.855-405.782c343.41,158.755,409.077,599.782,340.179,1288.719
			c-39.105,391.062-57.438,664.208-13.564,849.805H4661.414z"/>
	</defs>
	<clipPath id="SVGID_00000076576374774423122320000014126116511893144464_">
		<use xlink:href="#SVGID_1_"  style="overflow:visible;"/>
	</clipPath>
	
		<linearGradient id="SVGID_00000005233637434217071800000006163514272092349589_" gradientUnits="userSpaceOnUse" x1="4716.2129" y1="2674.9153" x2="0" y2="2674.9153">
		<stop  offset="0" style="stop-color:#FC67FA"/>
		<stop  offset="0.47" style="stop-color:#FFD4F7"/>
		<stop  offset="1" style="stop-color:#39D5FF"/>
	</linearGradient>
	
		<rect y="1349.831" style="clip-path:url(#SVGID_00000076576374774423122320000014126116511893144464_);fill:url(#SVGID_00000005233637434217071800000006163514272092349589_);" width="4749.268" height="2650.169"/>
</g>
<g>
	<defs>
		<path id="SVGID_00000046327599207297364910000017664338944863940248_" d="M8101.833,0h-6.182
			c-219.229,285.742-439.759,425.039-692.875,383.21C7220.807,353.145,7021.82,229.622,6794.239,0h-6.824
			c229.842,232.656,430.76,357.719,614.548,388.084C7658.051,430.392,7880.674,289.264,8101.833,0 M8203.506,0h-6.005
			c-240.637,344.526-479.165,516.754-756.933,470.864C7236.664,437.179,7011.409,286.189,6748.479,0h-6.591
			c265.096,289.225,492.203,441.76,697.869,475.739C7720.508,522.123,7961.034,348.055,8203.506,0z M8300.116,0h-5.881
			c-260.928,402.714-515.45,608.164-815.88,558.519C7254.57,521.544,7005.053,343.251,6708.237,0h-6.454
			c298.928,346.315,550.233,526.127,775.766,563.386C7780.975,613.52,8037.42,406.229,8300.116,0z M8392.828,0h-5.784
			c-280.479,460.262-549.395,699.29-870.897,646.171C7274.033,606.169,7001.802,400.777,6672.14,0h-6.337
			c331.73,403.87,605.69,610.757,849.54,651.041C7839.872,704.664,8110.66,463.773,8392.828,0z M8482.595,0h-5.7
			c-299.547,517.359-581.623,790.225-922.954,733.826C7294.76,691.011,7001.083,458.664,6639.372,0h-6.241
			c363.719,461.764,659.093,695.598,919.997,738.7C7897.532,795.602,8181.404,520.856,8482.595,0z M8569.963,0h-5.647
			c-318.311,573.967-612.456,880.979-972.583,821.48C7316.539,776.019,7002.433,516.878,6609.306,0h-6.156
			c395.091,519.964,710.853,780.6,987.77,826.354C7954.159,886.367,8250.054,577.443,8569.963,0z M8655.647,0h-5.628l-20.03,36.842
			c-329.112,606.607-629.854,933.52-1000.47,872.292C7339.176,861.17,7005.54,575.428,6581.456,0h-6.082
			c425.995,578.495,761.266,865.753,1053.333,914.002c373.274,61.671,675.44-266.219,1005.616-874.794L8655.647,0z M8741.547,0
			h-5.641c-22.014,39.8-44.682,81.297-68.125,124.504c-329.117,606.6-629.854,933.52-1000.47,872.279
			C7362.599,946.44,7010.187,634.143,6555.589,0h-6.058c456.482,637.236,810.512,951.028,1116.975,1001.657
			c373.266,61.677,675.432-266.219,1005.61-874.794C8696.025,82.792,8719.132,40.508,8741.547,0z M8828.382,0h-5.679
			c-37.039,65.472-75.897,136.162-117.128,212.158c-329.119,606.598-629.861,933.52-1000.47,872.278
			C7386.658,1031.825,7016.134,693.175,6531.302,0h-6.025c486.691,696.3,858.807,1036.422,1179.017,1089.311
			c373.266,61.677,675.432-266.219,1005.608-874.8C8751.646,137.58,8790.946,66.103,8828.382,0z M8916.583,0h-5.731
			c-51.904,88.714-107.167,188.63-167.484,299.806c-329.117,606.605-629.861,933.527-1000.471,872.292
			C7411.304,1117.315,7023.251,752.381,6508.471,0h-5.966c516.591,755.469,906.224,1121.898,1239.58,1176.966
			c373.267,61.671,675.432-266.219,1005.61-874.794C8808.586,189.944,8864.296,89.239,8916.583,0z M9000,11.379V4.01l-0.924-0.626
			c-66.356,108.2-137.66,236.129-217.923,384.077c-329.111,606.605-629.86,933.52-1000.463,872.292
			C7436.473,1202.878,7031.395,811.763,6486.907,0h-5.934c546.273,814.858,952.907,1207.459,1298.898,1264.62
			c373.273,61.671,675.432-266.219,1005.615-874.794C8864.427,244.335,8934.643,118.272,9000,11.379z M9000,162.018v-9.737
			c-55.821,94.329-115.438,201.896-181.055,322.834c-329.117,606.605-629.854,933.52-1000.47,872.285
			c-356.38-58.878-777.997-476.053-1352.04-1347.4h-5.902c575.794,874.45,998.948,1293.105,1357.131,1352.275
			c373.273,61.668,675.438-266.219,1005.616-874.796C8887.226,359.61,8945.446,254.506,9000,162.018z M9000,314.681v-9.923
			c-44.819,77.963-92.23,163.948-143.268,258.009c-329.112,606.607-629.854,933.527-1000.463,872.285
			C7488.143,1374.235,7050.404,931.122,6446.963,0h-5.881c605.163,934.229,1044.429,1378.809,1414.375,1439.922
			c373.266,61.682,675.432-266.212,1005.608-874.796C8910.479,474.056,8956.475,390.592,9000,314.681z M9000,469.012v-10.1
			c-33.522,59.624-68.547,123.451-105.477,191.51c-329.116,606.6-629.854,933.52-1000.47,872.292
			c-371.205-61.338-813.162-511.288-1424.468-1458.464c-14.148-21.914-28.315-43.239-42.492-64.25h-5.952
			c14.786,21.868,29.551,44.083,44.305,66.939c612.124,948.437,1055.113,1399.077,1427.802,1460.635
			c373.266,61.677,675.431-266.21,1005.61-874.787C8934.21,587.646,8967.803,526.393,9000,469.012z M9000,624.576v-10.198
			c-21.877,39.562-44.397,80.785-67.683,123.699c-329.112,606.607-629.86,933.52-1000.469,872.285
			c-371.208-61.327-813.17-511.283-1424.469-1458.457C6472.947,98.559,6438.416,48.061,6403.822,0h-6.096
			c35.251,48.861,70.431,100.235,105.513,154.594c612.124,948.43,1055.12,1399.077,1427.802,1460.642
			c373.262,61.671,675.427-266.224,1005.606-874.794C8958.398,700.349,8979.494,661.725,9000,624.576z M9000,781.12v-10.301
			c-9.826,17.989-19.784,36.292-29.891,54.912c-329.117,606.607-629.861,933.52-1000.47,872.285
			c-371.211-61.327-813.169-511.29-1424.475-1458.457C6489.104,152.691,6432.782,73.043,6376.336,0h-6.284
			c57.158,73.758,114.195,154.282,170.974,242.249c612.124,948.43,1055.12,1399.07,1427.802,1460.642
			c373.267,61.671,675.432-266.226,1005.618-874.8C8983.063,812.199,8991.583,796.548,9000,781.12z M9000,938.161v-10.315
			c-326.031,597.298-624.929,918.578-992.567,857.825c-371.214-61.327-813.176-511.29-1424.475-1458.464
			C6503.551,204.17,6423.625,95.7,6343.573,0h-6.466c80.83,96.303,161.537,205.672,241.717,329.903
			c612.117,948.43,1055.114,1399.068,1427.797,1460.635C8375.279,1851.448,8674.572,1532.339,9000,938.161z M9000,1093.768v-10.022
			c-311.52,553.424-601.382,847.966-954.78,789.572c-371.214-61.327-813.171-511.283-1424.475-1458.452
			C6516.037,252.621,6410.43,115.47,6304.8,0h-6.734c106.496,115.938,212.973,253.974,318.545,417.551
			c612.117,948.437,1055.114,1399.081,1427.795,1460.642C8398.749,1936.743,8689.021,1644.196,9000,1093.768z M9000,1237.382
			c-297.336,510.696-577.914,779.619-916.988,723.598c-371.208-61.327-813.163-511.29-1424.468-1458.459
			C6525.902,297.004,6391.831,131.79,6258.083,0h-7.122c134.728,132.088,269.813,298.155,403.441,505.205
			c612.124,948.435,1055.115,1399.081,1427.802,1460.649c339.952,56.166,620.926-210.84,917.795-718.666V1237.382z"/>
	</defs>
	<clipPath id="SVGID_00000176016280677034577910000005177614553983212427_">
		<use xlink:href="#SVGID_00000046327599207297364910000017664338944863940248_"  style="overflow:visible;"/>
	</clipPath>
	
		<linearGradient id="SVGID_00000148654949961809903190000008587725670294176660_" gradientUnits="userSpaceOnUse" x1="8692.7744" y1="1736.1732" x2="4791.8843" y2="-914.2524">
		<stop  offset="0" style="stop-color:#FC67FA"/>
		<stop  offset="0.47" style="stop-color:#FFD4F7"/>
		<stop  offset="1" style="stop-color:#39D5FF"/>
	</linearGradient>
	
		<rect x="6250.961" style="clip-path:url(#SVGID_00000176016280677034577910000005177614553983212427_);fill:url(#SVGID_00000148654949961809903190000008587725670294176660_);" width="2749.039" height="2022.02"/>
</g>
</svg>
